<mxfile host="Electron" agent="Mozilla/5.0 (Windows NT 10.0; Win64; x64) AppleWebKit/537.36 (KHTML, like Gecko) draw.io/28.0.6 Chrome/138.0.7204.100 Electron/37.2.3 Safari/537.36" version="28.0.6">
  <diagram name="ページ1" id="m6U91rfBJbUAjDah1j11">
    <mxGraphModel dx="1170" dy="704" grid="0" gridSize="10" guides="1" tooltips="1" connect="1" arrows="1" fold="1" page="1" pageScale="1" pageWidth="1169" pageHeight="827" background="#FFFFFF" math="0" shadow="0">
      <root>
        <mxCell id="0" />
        <mxCell id="1" parent="0" />
        <mxCell id="MHJNG7yzz_HnRKZ4PRI5-4" value="" style="rounded=0;whiteSpace=wrap;html=1;" vertex="1" parent="1">
          <mxGeometry x="402" y="130" width="927" height="716" as="geometry" />
        </mxCell>
        <mxCell id="fP9RWA6pcITS6-f0ULDv-19" value="servlet" style="rounded=0;whiteSpace=wrap;html=1;spacingTop=-170;" parent="1" vertex="1">
          <mxGeometry x="87" y="302" width="228" height="191" as="geometry" />
        </mxCell>
        <mxCell id="fP9RWA6pcITS6-f0ULDv-1" value="webContent" style="rounded=0;whiteSpace=wrap;html=1;align=left;verticalAlign=top;" parent="1" vertex="1">
          <mxGeometry x="87" y="166" width="230" height="81" as="geometry" />
        </mxCell>
        <mxCell id="fP9RWA6pcITS6-f0ULDv-2" value="&amp;lt;&amp;lt;JSP&amp;gt;&amp;gt;&lt;div&gt;task.jsp&lt;/div&gt;" style="rounded=0;whiteSpace=wrap;html=1;" parent="1" vertex="1">
          <mxGeometry x="109" y="193" width="201" height="44" as="geometry" />
        </mxCell>
        <mxCell id="fP9RWA6pcITS6-f0ULDv-5" value="" style="rounded=0;whiteSpace=wrap;html=1;" parent="1" vertex="1">
          <mxGeometry x="87" y="287" width="81" height="15" as="geometry" />
        </mxCell>
        <mxCell id="fP9RWA6pcITS6-f0ULDv-11" value="TaskListServlet" style="swimlane;whiteSpace=wrap;html=1;startSize=23;" parent="1" vertex="1">
          <mxGeometry x="102.25" y="339" width="199.5" height="137" as="geometry" />
        </mxCell>
        <mxCell id="fP9RWA6pcITS6-f0ULDv-13" value="- seria VerionUID : long = 1L" style="text;html=1;align=center;verticalAlign=middle;resizable=0;points=[];autosize=1;strokeColor=none;fillColor=none;fontStyle=0" parent="fP9RWA6pcITS6-f0ULDv-11" vertex="1">
          <mxGeometry x="8" y="24" width="169" height="26" as="geometry" />
        </mxCell>
        <mxCell id="fP9RWA6pcITS6-f0ULDv-15" value="" style="endArrow=none;html=1;rounded=0;entryX=1.018;entryY=1.077;entryDx=0;entryDy=0;entryPerimeter=0;exitX=-0.018;exitY=1.038;exitDx=0;exitDy=0;exitPerimeter=0;" parent="fP9RWA6pcITS6-f0ULDv-11" source="fP9RWA6pcITS6-f0ULDv-13" target="fP9RWA6pcITS6-f0ULDv-13" edge="1">
          <mxGeometry width="50" height="50" relative="1" as="geometry">
            <mxPoint x="16" y="110" as="sourcePoint" />
            <mxPoint x="66" y="60" as="targetPoint" />
          </mxGeometry>
        </mxCell>
        <mxCell id="fP9RWA6pcITS6-f0ULDv-16" value="+ TaskListServlet()" style="text;html=1;align=center;verticalAlign=middle;resizable=0;points=[];autosize=1;strokeColor=none;fillColor=none;" parent="fP9RWA6pcITS6-f0ULDv-11" vertex="1">
          <mxGeometry x="4" y="55.5" width="117" height="26" as="geometry" />
        </mxCell>
        <mxCell id="fP9RWA6pcITS6-f0ULDv-17" value="# doGet(request responce) : void" style="text;html=1;align=center;verticalAlign=middle;resizable=0;points=[];autosize=1;strokeColor=none;fillColor=none;" parent="fP9RWA6pcITS6-f0ULDv-11" vertex="1">
          <mxGeometry x="4" y="79" width="193" height="26" as="geometry" />
        </mxCell>
        <mxCell id="fP9RWA6pcITS6-f0ULDv-18" value="# doPost(request responce : void)" style="text;html=1;align=center;verticalAlign=middle;resizable=0;points=[];autosize=1;strokeColor=none;fillColor=none;" parent="fP9RWA6pcITS6-f0ULDv-11" vertex="1">
          <mxGeometry x="4" y="100" width="198" height="26" as="geometry" />
        </mxCell>
        <mxCell id="fP9RWA6pcITS6-f0ULDv-20" value="entity" style="rounded=0;whiteSpace=wrap;html=1;spacingTop=-449;" parent="1" vertex="1">
          <mxGeometry x="432" y="215" width="375" height="597" as="geometry" />
        </mxCell>
        <mxCell id="fP9RWA6pcITS6-f0ULDv-22" value="" style="rounded=0;whiteSpace=wrap;html=1;" parent="1" vertex="1">
          <mxGeometry x="432" y="191" width="124" height="23" as="geometry" />
        </mxCell>
        <mxCell id="fP9RWA6pcITS6-f0ULDv-23" value="TaskBean" style="swimlane;whiteSpace=wrap;html=1;" parent="1" vertex="1">
          <mxGeometry x="449.5" y="245" width="340" height="559" as="geometry" />
        </mxCell>
        <mxCell id="fP9RWA6pcITS6-f0ULDv-25" value="+ getTask_id() : Int&lt;div&gt;+ setTask_id(Int Task_id) : void&lt;/div&gt;&lt;div&gt;+ getTask_name() : String&lt;div&gt;+ setTask_name(String Task_name) : void&lt;/div&gt;&lt;/div&gt;&lt;div&gt;&lt;span style=&quot;background-color: transparent; color: light-dark(rgb(0, 0, 0), rgb(255, 255, 255));&quot;&gt;+ getCategory_id() : Int&lt;/span&gt;&lt;/div&gt;&lt;div&gt;&lt;div&gt;+ setCategory_id(Int Category_id) : void&lt;/div&gt;&lt;/div&gt;&lt;div&gt;+ getLimit_date() : Date&lt;div&gt;+ setLimit_date(Date Limit_date) : void&lt;/div&gt;&lt;/div&gt;&lt;div&gt;+ getUser_id() : String&lt;div&gt;+ setUser_id(String User_id) : void&lt;/div&gt;&lt;/div&gt;&lt;div&gt;+ getStatus_code() : String&lt;div&gt;+ setStatus_code(String Status_code) : void&lt;/div&gt;&lt;/div&gt;&lt;div&gt;+ getMemo() : String&lt;div&gt;+ setMemo(String Memo) : void&lt;/div&gt;&lt;/div&gt;&lt;div&gt;+ getCreate_datetime() : Timestamp&lt;div&gt;+ setCreate_datetime(&lt;span style=&quot;background-color: transparent; color: light-dark(rgb(0, 0, 0), rgb(255, 255, 255));&quot;&gt;Timestamp&lt;/span&gt;&lt;span style=&quot;background-color: transparent; color: light-dark(rgb(0, 0, 0), rgb(255, 255, 255));&quot;&gt;&amp;nbsp;Create_datetime&lt;/span&gt;&lt;span style=&quot;background-color: transparent; color: light-dark(rgb(0, 0, 0), rgb(255, 255, 255));&quot;&gt;) : void&lt;/span&gt;&lt;/div&gt;&lt;/div&gt;&lt;div&gt;+ getUpdate_datetime() : Timestamp&lt;div&gt;+ setUpdate_datetime(&lt;span style=&quot;background-color: transparent; color: light-dark(rgb(0, 0, 0), rgb(255, 255, 255));&quot;&gt;Timestamp&lt;/span&gt;&lt;span style=&quot;background-color: transparent; color: light-dark(rgb(0, 0, 0), rgb(255, 255, 255));&quot;&gt;&amp;nbsp;Update_datetime&lt;/span&gt;&lt;span style=&quot;background-color: transparent; color: light-dark(rgb(0, 0, 0), rgb(255, 255, 255));&quot;&gt;) : void&lt;/span&gt;&lt;/div&gt;&lt;/div&gt;&lt;div&gt;+ getCategory_name() : String&lt;div&gt;+ setCategory_name(String Category_name) : void&lt;/div&gt;&lt;/div&gt;&lt;div&gt;+ getUser_name() : String&lt;div&gt;+ setUser_name(String User_name) : void&lt;/div&gt;&lt;/div&gt;&lt;div&gt;+ getStatus_name() : String&lt;div&gt;+ setStatus_name(String Status_name) : void&lt;/div&gt;&lt;/div&gt;" style="rounded=0;whiteSpace=wrap;html=1;align=left;spacingTop=-7;" parent="fP9RWA6pcITS6-f0ULDv-23" vertex="1">
          <mxGeometry y="192" width="340" height="367" as="geometry" />
        </mxCell>
        <mxCell id="fP9RWA6pcITS6-f0ULDv-24" value="- task_id : Int&lt;div&gt;- task_name : String&lt;/div&gt;&lt;div&gt;- category_id : Int&lt;/div&gt;&lt;div&gt;- limit_date : Date&lt;/div&gt;&lt;div&gt;- user_id : String&lt;/div&gt;&lt;div&gt;- status_code : String&lt;/div&gt;&lt;div&gt;- memo : String&lt;/div&gt;&lt;div&gt;- create_datetime : Timestamp&lt;/div&gt;&lt;div&gt;- update_datetime : Timestamp&lt;/div&gt;&lt;div&gt;- category_name : String&lt;/div&gt;&lt;div&gt;- user_name : String&lt;/div&gt;&lt;div&gt;- status_name : String&lt;/div&gt;" style="rounded=0;whiteSpace=wrap;html=1;align=left;" parent="1" vertex="1">
          <mxGeometry x="450" y="268" width="339" height="169" as="geometry" />
        </mxCell>
        <mxCell id="fP9RWA6pcITS6-f0ULDv-26" value="" style="rounded=0;whiteSpace=wrap;html=1;" parent="1" vertex="1">
          <mxGeometry x="863" y="191" width="124" height="23" as="geometry" />
        </mxCell>
        <mxCell id="fP9RWA6pcITS6-f0ULDv-27" value="dao" style="rounded=0;whiteSpace=wrap;html=1;spacingTop=-449;" parent="1" vertex="1">
          <mxGeometry x="863" y="215" width="436" height="478" as="geometry" />
        </mxCell>
        <mxCell id="fP9RWA6pcITS6-f0ULDv-28" value="ConnectionManager" style="swimlane;whiteSpace=wrap;html=1;" parent="1" vertex="1">
          <mxGeometry x="876" y="245" width="343" height="166" as="geometry" />
        </mxCell>
        <mxCell id="fP9RWA6pcITS6-f0ULDv-29" value="TaskDAO" style="swimlane;whiteSpace=wrap;html=1;" parent="1" vertex="1">
          <mxGeometry x="878" y="467" width="397" height="200" as="geometry" />
        </mxCell>
        <mxCell id="fP9RWA6pcITS6-f0ULDv-30" value="&amp;nbsp;- URL : Strong&lt;font style=&quot;color: rgb(0, 0, 0);&quot;&gt;&lt;font style=&quot;color: rgb(0, 0, 0);&quot;&gt; &lt;/font&gt;&lt;font style=&quot;&quot;&gt;&lt;font style=&quot;color: rgb(0, 0, 0);&quot;&gt;=&lt;/font&gt;&lt;span style=&quot;font-family: &amp;quot;ＭＳ ゴシック&amp;quot;; white-space: pre;&quot;&gt;&lt;font style=&quot;font-size: 15px; color: rgb(0, 0, 0);&quot;&gt;&quot;jdbc:mysql://localhost:3306/itemdb&quot;&lt;/font&gt;&lt;/span&gt;&lt;/font&gt;&lt;/font&gt;&lt;div&gt;&lt;span style=&quot;background-color: transparent; color: light-dark(rgb(0, 0, 0), rgb(255, 255, 255));&quot;&gt;&amp;nbsp;- USER : String = &quot;root&quot;&amp;nbsp;&lt;/span&gt;&lt;div style=&quot;background-color:#2f2f2f;padding:0px 0px 0px 2px;&quot;&gt;&lt;div style=&quot;color: rgb(170, 170, 170); font-family: &amp;quot;ＭＳ ゴシック&amp;quot;; font-size: 15pt; white-space: pre;&quot;&gt;&lt;p style=&quot;background-color:#373737;margin:0;&quot;&gt;&lt;span style=&quot;color:#d9e8f7;&quot;&gt;&lt;/span&gt;&lt;/p&gt;&lt;/div&gt;&lt;/div&gt;&lt;/div&gt;&lt;div&gt;&lt;span style=&quot;background-color: transparent; color: light-dark(rgb(0, 0, 0), rgb(255, 255, 255));&quot;&gt;&amp;nbsp;- PASSWORD : String = &quot;mysql&quot;&lt;/span&gt;&lt;/div&gt;&lt;div&gt;&lt;span style=&quot;background-color: transparent; color: light-dark(rgb(0, 0, 0), rgb(255, 255, 255));&quot;&gt;&lt;br&gt;&lt;/span&gt;&lt;/div&gt;&lt;div&gt;&lt;span style=&quot;background-color: transparent; color: light-dark(rgb(0, 0, 0), rgb(255, 255, 255));&quot;&gt;&lt;br&gt;&lt;/span&gt;&lt;/div&gt;&lt;div&gt;&lt;span style=&quot;background-color: transparent; color: light-dark(rgb(0, 0, 0), rgb(255, 255, 255));&quot;&gt;&lt;br&gt;&lt;/span&gt;&lt;/div&gt;&lt;div&gt;&lt;span style=&quot;background-color: transparent; color: light-dark(rgb(0, 0, 0), rgb(255, 255, 255));&quot;&gt;&lt;br&gt;&lt;/span&gt;&lt;/div&gt;&lt;div&gt;&lt;br&gt;&lt;/div&gt;" style="rounded=0;whiteSpace=wrap;html=1;align=left;" parent="1" vertex="1">
          <mxGeometry x="876" y="268" width="397" height="143" as="geometry" />
        </mxCell>
        <mxCell id="WLajiBzp0x1ZXgxxga8m-1" value="&amp;nbsp;+ getConnection() : Connection" style="rounded=0;whiteSpace=wrap;html=1;align=left;" parent="1" vertex="1">
          <mxGeometry x="876" y="351" width="397" height="60" as="geometry" />
        </mxCell>
        <mxCell id="WLajiBzp0x1ZXgxxga8m-2" value="+ selectAll() List&amp;lt;TaskBean&amp;gt;" style="rounded=0;whiteSpace=wrap;html=1;align=left;" parent="1" vertex="1">
          <mxGeometry x="878" y="489" width="397" height="178" as="geometry" />
        </mxCell>
        <mxCell id="MHJNG7yzz_HnRKZ4PRI5-3" value="entity" style="rounded=0;whiteSpace=wrap;html=1;strokeColor=none;" vertex="1" parent="1">
          <mxGeometry x="571.5" y="219" width="108" height="22" as="geometry" />
        </mxCell>
        <mxCell id="MHJNG7yzz_HnRKZ4PRI5-5" value="" style="rounded=0;whiteSpace=wrap;html=1;" vertex="1" parent="1">
          <mxGeometry x="402" y="99" width="167" height="31" as="geometry" />
        </mxCell>
        <mxCell id="MHJNG7yzz_HnRKZ4PRI5-6" value="model" style="rounded=0;whiteSpace=wrap;html=1;strokeColor=none;" vertex="1" parent="1">
          <mxGeometry x="713" y="138" width="120" height="36" as="geometry" />
        </mxCell>
        <mxCell id="MHJNG7yzz_HnRKZ4PRI5-18" value="" style="endArrow=classic;html=1;rounded=0;entryX=0.008;entryY=0.353;entryDx=0;entryDy=0;entryPerimeter=0;" edge="1" parent="1" target="fP9RWA6pcITS6-f0ULDv-20">
          <mxGeometry width="50" height="50" relative="1" as="geometry">
            <mxPoint x="315" y="432.5" as="sourcePoint" />
            <mxPoint x="365" y="382.5" as="targetPoint" />
          </mxGeometry>
        </mxCell>
        <mxCell id="MHJNG7yzz_HnRKZ4PRI5-20" value="" style="endArrow=classic;html=1;rounded=0;entryX=0.028;entryY=0.194;entryDx=0;entryDy=0;entryPerimeter=0;" edge="1" parent="1" target="MHJNG7yzz_HnRKZ4PRI5-4">
          <mxGeometry width="50" height="50" relative="1" as="geometry">
            <mxPoint x="317" y="219" as="sourcePoint" />
            <mxPoint x="367" y="169" as="targetPoint" />
          </mxGeometry>
        </mxCell>
        <mxCell id="MHJNG7yzz_HnRKZ4PRI5-22" value="" style="endArrow=classic;html=1;rounded=0;" edge="1" parent="1">
          <mxGeometry width="50" height="50" relative="1" as="geometry">
            <mxPoint x="880" y="600" as="sourcePoint" />
            <mxPoint x="794" y="600" as="targetPoint" />
          </mxGeometry>
        </mxCell>
        <mxCell id="MHJNG7yzz_HnRKZ4PRI5-23" value="" style="endArrow=classic;html=1;rounded=0;entryX=0.474;entryY=1;entryDx=0;entryDy=0;entryPerimeter=0;" edge="1" parent="1" target="WLajiBzp0x1ZXgxxga8m-1">
          <mxGeometry width="50" height="50" relative="1" as="geometry">
            <mxPoint x="1064" y="467" as="sourcePoint" />
            <mxPoint x="1114" y="417" as="targetPoint" />
          </mxGeometry>
        </mxCell>
      </root>
    </mxGraphModel>
  </diagram>
</mxfile>
